{
  "accessors": [
    {
      "bufferView": 2,
      "componentType": 5126,
      "count": 34601,
      "max": [
        27.361825942993164,
        96.960685729980469,
        60.034763336181641
      ],
      "min": [
        -44.54608154296875,
        4.9277191162109375,
        -40.968448638916016
      ],
      "type": "VEC3"
    },
    {
      "bufferView": 2,
      "byteOffset": 415212,
      "componentType": 5126,
      "count": 34601,
      "max": [
        0.99997949600219727,
        0.9999624490737915,
        0.99992400407791138
      ],
      "min": [
        -0.99999958276748657,
        -0.99997299909591675,
        -0.99995547533035278
      ],
      "type": "VEC3"
    },
    {
      "bufferView": 3,
      "componentType": 5126,
      "count": 34601,
      "max": [
        0.99998342990875244,
        0.99998247623443604,
        0.99985027313232422,
        1
      ],
      "min": [
        -0.99998694658279419,
        -0.99919587373733521,
        -0.99999743700027466,
        1
      ],
      "type": "VEC4"
    },
    {
      "bufferView": 1,
      "componentType": 5126,
      "count": 34601,
      "max": [
        0.99000000953674316,
        0.99000000953674316
      ],
      "min": [
        0.0099999997764825821,
        0.029718000441789627
      ],
      "type": "VEC2"
    },
    {
      "bufferView": 0,
      "componentType": 5125,
      "count": 195864,
      "max": [
        34600
      ],
      "min": [
        0
      ],
      "type": "SCALAR"
    }
  ],
  "asset": {
    "extras": {
      "author": "hillarysmells (https://sketchfab.com/hillarysmells)",
      "license": "CC-BY-4.0 (http://creativecommons.org/licenses/by/4.0/)",
      "source": "https://sketchfab.com/models/abd9dddd19014ef3ae6a0c9d3f04fc98",
      "title": "Trump Baby Balloon from the UK protest"
    },
    "generator": "Sketchfab-3.30.3",
    "version": "2.0"
  },
  "bufferViews": [
    {
      "buffer": 0,
      "byteLength": 783456,
      "byteOffset": 0,
      "name": "floatBufferViews",
      "target": 34963
    },
    {
      "buffer": 0,
      "byteLength": 276808,
      "byteOffset": 783456,
      "byteStride": 8,
      "name": "floatBufferViews",
      "target": 34962
    },
    {
      "buffer": 0,
      "byteLength": 830424,
      "byteOffset": 1060264,
      "byteStride": 12,
      "name": "floatBufferViews",
      "target": 34962
    },
    {
      "buffer": 0,
      "byteLength": 553616,
      "byteOffset": 1890688,
      "byteStride": 16,
      "name": "floatBufferViews",
      "target": 34962
    }
  ],
  "buffers": [
    {
      "byteLength": 2444304,
      "uri": "scene.bin"
    }
  ],
  "images": [
    {
      "uri": "textures/Trump_Balloon4_baseColor.png"
    },
    {
      "uri": "textures/Trump_Balloon4_metallicRoughness.png"
    },
    {
      "uri": "textures/Trump_Balloon4_normal.png"
    },
    {
      "uri": "textures/Trump_Balloon4_emissive.png"
    }
  ],
  "materials": [
    {
      "doubleSided": true,
      "emissiveFactor": [
        1,
        1,
        1
      ],
      "emissiveTexture": {
        "index": 3,
        "texCoord": 0
      },
      "name": "Trump_Balloon4",
      "normalTexture": {
        "index": 2,
        "scale": 1,
        "texCoord": 0
      },
      "pbrMetallicRoughness": {
        "baseColorFactor": [
          1,
          1,
          1,
          1
        ],
        "baseColorTexture": {
          "index": 0,
          "texCoord": 0
        },
        "metallicRoughnessTexture": {
          "index": 1,
          "texCoord": 0
        },
        "roughnessFactor": 1
      }
    }
  ],
  "meshes": [
    {
      "primitives": [
        {
          "attributes": {
            "NORMAL": 1,
            "POSITION": 0,
            "TANGENT": 2,
            "TEXCOORD_0": 3
          },
          "indices": 4,
          "material": 0,
          "mode": 4
        }
      ]
    }
  ],
  "nodes": [
    {
      "children": [
        1
      ],
      "name": "RootNode (gltf orientation matrix)",
      "rotation": [
        -0.70710678118654746,
        -0,
        -0,
        0.70710678118654757
      ]
    },
    {
      "children": [
        2
      ],
      "name": "RootNode (model correction matrix)"
    },
    {
      "children": [
        3
      ],
      "name": "Balloon.obj.cleaner.materialmerger.gles"
    },
    {
      "mesh": 0,
      "name": ""
    }
  ],
  "samplers": [
    {
      "magFilter": 9729,
      "minFilter": 9987,
      "wrapS": 10497,
      "wrapT": 10497
    }
  ],
  "scene": 0,
  "scenes": [
    {
      "name": "OSG_Scene",
      "nodes": [
        0
      ]
    }
  ],
  "textures": [
    {
      "sampler": 0,
      "source": 0
    },
    {
      "sampler": 0,
      "source": 1
    },
    {
      "sampler": 0,
      "source": 2
    },
    {
      "sampler": 0,
      "source": 3
    }
  ]
}

